<?xml version="1.0" encoding="UTF-8" standalone="no"?>
<svg
   xmlns:dc="http://purl.org/dc/elements/1.1/"
   xmlns:cc="http://creativecommons.org/ns#"
   xmlns:rdf="http://www.w3.org/1999/02/22-rdf-syntax-ns#"
   xmlns:svg="http://www.w3.org/2000/svg"
   xmlns="http://www.w3.org/2000/svg"
   xmlns:sodipodi="http://sodipodi.sourceforge.net/DTD/sodipodi-0.dtd"
   xmlns:inkscape="http://www.inkscape.org/namespaces/inkscape"
   width="22.261269in"
   height="17.015387in"
   id="svg15824"
   version="1.1"
   inkscape:version="0.91 r13725"
   sodipodi:docname="RollrGirlz_playfield_upper_current.svg">
  <metadata
     id="metadata16070">
    <rdf:RDF>
      <cc:Work
         rdf:about="">
        <dc:format>image/svg+xml</dc:format>
        <dc:type
           rdf:resource="http://purl.org/dc/dcmitype/StillImage" />
        <dc:title></dc:title>
      </cc:Work>
    </rdf:RDF>
  </metadata>
  <sodipodi:namedview
     pagecolor="#ffffff"
     bordercolor="#666666"
     borderopacity="1"
     objecttolerance="10"
     gridtolerance="10"
     guidetolerance="10"
     inkscape:pageopacity="0"
     inkscape:pageshadow="2"
     inkscape:window-width="1278"
     inkscape:window-height="676"
     id="namedview16068"
     showgrid="false"
     units="in"
     fit-margin-top="1"
     fit-margin-left="1"
     fit-margin-right="1"
     fit-margin-bottom="1"
     inkscape:zoom="0.17999089"
     inkscape:cx="1005.626"
     inkscape:cy="846.91731"
     inkscape:window-x="19"
     inkscape:window-y="13"
     inkscape:window-maximized="0"
     inkscape:current-layer="g16066" />
  <desc
     id="desc15826">/Users/briancox/Dropbox (TML Team)/BriansPinballArtwork/Playfields/Playfield_current_SVG_DXF/RollrGirlz_playfield_upper_current.dxf - scale = 25.400000, origin = (0.000000, 0.000000), auto = False</desc>
  <defs
     id="defs15828">
    <marker
       id="DistanceX"
       orient="auto"
       refX="0"
       refY="0"
       style="overflow:visible">
      <path
         d="M 3,-3 -3,3 M 0,-5 0,5"
         style="stroke:#000000;stroke-width:0.5"
         id="path15831"
         inkscape:connector-curvature="0" />
    </marker>
    <pattern
       height="8"
       id="Hatch"
       patternUnits="userSpaceOnUse"
       width="8"
       x="0"
       y="0">
      <path
         d="M8 4 l-4,4"
         linecap="square"
         stroke="#000000"
         stroke-width="0.25"
         id="path15834" />
      <path
         d="M6 2 l-4,4"
         linecap="square"
         stroke="#000000"
         stroke-width="0.25"
         id="path15836" />
      <path
         d="M4 0 l-4,4"
         linecap="square"
         stroke="#000000"
         stroke-width="0.25"
         id="path15838" />
    </pattern>
    <symbol
       id="*MODEL_SPACE" />
    <symbol
       id="*PAPER_SPACE" />
  </defs>
  <g
     inkscape:groupmode="layer"
     inkscape:label="0"
     id="g15842"
     transform="translate(90.507121,2975.6449)" />
  <g
     inkscape:groupmode="layer"
     inkscape:label="DT_COMPONENTS"
     id="g15844"
     transform="translate(90.507121,2975.6449)" />
  <g
     inkscape:groupmode="layer"
     inkscape:label="DT250"
     id="g15846"
     transform="translate(90.507121,2975.6449)">
    <path
       d="m 415.98525,-2514.5645 a 34.2,34.2 0 1 0 -68.4,0 34.2,34.2 0 1 0 68.4,0 z"
       style="fill:none;stroke:#00ff00;stroke-linecap:round"
       id="path15848"
       inkscape:connector-curvature="0" />
    <path
       d="m 1474.9147,-2514.5645 a 34.2,34.2 0 1 0 -68.4,0 34.2,34.2 0 1 0 68.4,0 z"
       style="fill:none;stroke:#00ff00;stroke-linecap:round"
       id="path15850"
       inkscape:connector-curvature="0" />
    <path
       d="m 892.08977,-2699.4491 a 34.2,34.2 0 1 0 -68.4,0 34.2,34.2 0 1 0 68.4,0 z"
       style="fill:none;stroke:#00ff00;stroke-linecap:round"
       id="path15852"
       inkscape:connector-curvature="0" />
    <path
       d="m 784.1348,-2699.4491 a 34.2,34.2 0 1 0 -68.4,0 34.2,34.2 0 1 0 68.4,0 z"
       style="fill:none;stroke:#00ff00;stroke-linecap:round"
       id="path15854"
       inkscape:connector-curvature="0" />
    <path
       d="m 623.47364,-2687.3319 a 34.2,34.2 0 1 0 -68.4,0 34.2,34.2 0 1 0 68.4,0 z"
       style="fill:none;stroke:#00ff00;stroke-linecap:round"
       id="path15856"
       inkscape:connector-curvature="0" />
    <path
       d="m 519.72945,-2600.9482 a 34.2,34.2 0 1 0 -68.4,0 34.2,34.2 0 1 0 68.4,0 z"
       style="fill:none;stroke:#00ff00;stroke-linecap:round"
       id="path15858"
       inkscape:connector-curvature="0" />
    <path
       d="m 1000.0447,-2699.4491 a 34.2,34.2 0 1 0 -68.39997,0 34.2,34.2 0 1 0 68.39997,0 z"
       style="fill:none;stroke:#00ff00;stroke-linecap:round"
       id="path15860"
       inkscape:connector-curvature="0" />
    <path
       d="m 1107.9997,-2699.4491 a 34.2,34.2 0 1 0 -68.4,0 34.2,34.2 0 1 0 68.4,0 z"
       style="fill:none;stroke:#00ff00;stroke-linecap:round"
       id="path15862"
       inkscape:connector-curvature="0" />
    <path
       d="m 1371.1706,-2600.9482 a 34.2,34.2 0 1 0 -68.4,0 34.2,34.2 0 1 0 68.4,0 z"
       style="fill:none;stroke:#00ff00;stroke-linecap:round"
       id="path15864"
       inkscape:connector-curvature="0" />
    <path
       d="m 1267.4264,-2687.3319 a 34.2,34.2 0 1 0 -68.4,0 34.2,34.2 0 1 0 68.4,0 z"
       style="fill:none;stroke:#00ff00;stroke-linecap:round"
       id="path15866"
       inkscape:connector-curvature="0" />
  </g>
  <g
     inkscape:groupmode="layer"
     inkscape:label="DT500"
     id="g15868"
     transform="translate(90.507121,2975.6449)">
    <path
       d="m 1261.3479,-2687.3319 a 28.12155,28.12155 0 1 0 -56.2431,0 28.12155,28.12155 0 1 0 56.2431,0 z"
       style="fill:none;stroke:#0000ff;stroke-linecap:round"
       id="path15870"
       inkscape:connector-curvature="0" />
    <path
       d="m 1804.005,-2187.6378 a 4.005,4.005 0 1 0 -8.01,0 4.005,4.005 0 1 0 8.01,0 z"
       style="fill:none;stroke:#0000ff;stroke-linecap:round"
       id="path15872"
       inkscape:connector-curvature="0" />
    <path
       d="m 1546.8023,-1940.2622 a 22.5,22.5 0 1 0 -45,0 22.5,22.5 0 1 0 45,0 z"
       style="fill:none;stroke:#0000ff;stroke-linecap:round"
       id="path15874"
       inkscape:connector-curvature="0" />
    <path
       d="m 1804.005,-1827.6378 a 4.005,4.005 0 1 0 -8.01,0 4.005,4.005 0 1 0 8.01,0 z"
       style="fill:none;stroke:#0000ff;stroke-linecap:round"
       id="path15876"
       inkscape:connector-curvature="0" />
    <path
       d="m 1568.747,-1835.51 a 4.005,4.005 0 1 0 -8.01,0 4.005,4.005 0 1 0 8.01,0 z"
       style="fill:none;stroke:#0000ff;stroke-linecap:round"
       id="path15878"
       inkscape:connector-curvature="0" />
    <path
       d="m 886.0113,-2699.4491 a 28.121535,28.121535 0 1 0 -56.24307,0 28.121535,28.121535 0 1 0 56.24307,0 z"
       style="fill:none;stroke:#0000ff;stroke-linecap:round"
       id="path15880"
       inkscape:connector-curvature="0" />
    <path
       d="m 91.67334,-2415.0421 a 22.5,22.5 0 1 0 -45,0 22.5,22.5 0 1 0 45,0 z"
       style="fill:none;stroke:#0000ff;stroke-linecap:round"
       id="path15882"
       inkscape:connector-curvature="0" />
    <path
       d="m 1777.2345,-2417.5729 a 22.5,22.5 0 1 0 -45,0 22.5,22.5 0 1 0 45,0 z"
       style="fill:none;stroke:#0000ff;stroke-linecap:round"
       id="path15884"
       inkscape:connector-curvature="0" />
    <path
       d="m 274.4616,-2039.6688 a 4.005,4.005 0 1 0 -8.01,0 4.005,4.005 0 1 0 8.01,0 z"
       style="fill:none;stroke:#0000ff;stroke-linecap:round"
       id="path15886"
       inkscape:connector-curvature="0" />
    <path
       d="m 1030.0007,-1534.7631 574.9055,-255.3752"
       style="fill:none;stroke:#0000ff;stroke-linecap:round"
       id="path15888"
       inkscape:connector-curvature="0" />
    <path
       d="m 215.56285,-1789.1381 577.68745,254.375"
       style="fill:none;stroke:#0000ff;stroke-linecap:round"
       id="path15890"
       inkscape:connector-curvature="0" />
    <path
       d="m 793.2503,-1534.7631 236.7504,0"
       style="fill:none;stroke:#0000ff;stroke-linecap:round"
       id="path15892"
       inkscape:connector-curvature="0" />
    <path
       d="m 351.86705,-1806.6817 a 5.625,5.625 0 1 0 -11.25,0 5.625,5.625 0 1 0 11.25,0 z"
       style="fill:none;stroke:#0000ff;stroke-linecap:round"
       id="path15894"
       inkscape:connector-curvature="0" />
    <path
       d="m 1480.21,-1811.5455 a 5.625,5.625 0 1 0 -11.25,0 5.625,5.625 0 1 0 11.25,0 z"
       style="fill:none;stroke:#0000ff;stroke-linecap:round"
       id="path15896"
       inkscape:connector-curvature="0" />
    <path
       d="m 449.55369,-2688.1076 -43.22674,35.9932"
       style="fill:none;stroke:#0000ff;stroke-linecap:round"
       id="path15898"
       inkscape:connector-curvature="0" />
    <path
       d="m 377.53238,-2686.6958 43.22675,-35.9932"
       style="fill:none;stroke:#0000ff;stroke-linecap:round"
       id="path15900"
       inkscape:connector-curvature="0" />
    <path
       d="m 449.55369,-2688.1076 a 22.5,22.5 0 0 0 -28.79456,-34.5814"
       style="fill:none;stroke:#0000ff;stroke-linecap:round"
       id="path15902"
       inkscape:connector-curvature="0" />
    <path
       d="m 1401.7409,-2722.689 a 22.500012,22.500012 0 0 0 -28.7946,34.5814"
       style="fill:none;stroke:#0000ff;stroke-linecap:round"
       id="path15904"
       inkscape:connector-curvature="0" />
    <path
       d="m 1416.1731,-2652.1144 -43.2268,-35.9932"
       style="fill:none;stroke:#0000ff;stroke-linecap:round"
       id="path15906"
       inkscape:connector-curvature="0" />
    <path
       d="m 1401.7409,-2722.689 43.2267,35.9932"
       style="fill:none;stroke:#0000ff;stroke-linecap:round"
       id="path15908"
       inkscape:connector-curvature="0" />
    <path
       d="m 1416.1731,-2652.1144 a 22.5,22.5 0 0 0 28.7945,-34.5814"
       style="fill:none;stroke:#0000ff;stroke-linecap:round"
       id="path15910"
       inkscape:connector-curvature="0" />
    <path
       d="m 273.78819,-2600.3121 a 22.5,22.5 0 0 0 28.79456,34.5814"
       style="fill:none;stroke:#0000ff;stroke-linecap:round"
       id="path15912"
       inkscape:connector-curvature="0" />
    <path
       d="m 345.8095,-2601.7239 -43.22675,35.9932"
       style="fill:none;stroke:#0000ff;stroke-linecap:round"
       id="path15914"
       inkscape:connector-curvature="0" />
    <path
       d="m 273.78819,-2600.3121 43.22675,-35.9932"
       style="fill:none;stroke:#0000ff;stroke-linecap:round"
       id="path15916"
       inkscape:connector-curvature="0" />
    <path
       d="m 345.8095,-2601.7239 a 22.5,22.5 0 0 0 -28.79456,-34.5814"
       style="fill:none;stroke:#0000ff;stroke-linecap:round"
       id="path15918"
       inkscape:connector-curvature="0" />
    <path
       d="m 481.27658,-2773.0795 a 22.5,22.5 0 0 0 28.79456,34.5814"
       style="fill:none;stroke:#0000ff;stroke-linecap:round"
       id="path15920"
       inkscape:connector-curvature="0" />
    <path
       d="m 553.29789,-2774.4913 -43.22675,35.9932"
       style="fill:none;stroke:#0000ff;stroke-linecap:round"
       id="path15922"
       inkscape:connector-curvature="0" />
    <path
       d="m 844.2453,-2294.4987 a 236.25,236.25 0 1 0 -472.5,0 236.25,236.25 0 1 0 472.5,0 z"
       style="fill:none;stroke:#0000ff;stroke-linecap:round"
       id="path15924"
       inkscape:connector-curvature="0" />
    <path
       d="m 1437.7892,-2295.1426 a 236.25002,236.25002 0 1 0 -472.50005,0 236.25002,236.25002 0 1 0 472.50005,0 z"
       style="fill:none;stroke:#0000ff;stroke-linecap:round"
       id="path15926"
       inkscape:connector-curvature="0" />
    <path
       d="m 1606.9909,-2693.8878 a 4.005,4.005 0 1 0 -8.01,0 4.005,4.005 0 1 0 8.01,0 z"
       style="fill:none;stroke:#0000ff;stroke-linecap:round"
       id="path15928"
       inkscape:connector-curvature="0" />
    <path
       d="m 1493.6286,-2678.7913 a 4.005,4.005 0 1 0 -8.01,0 4.005,4.005 0 1 0 8.01,0 z"
       style="fill:none;stroke:#0000ff;stroke-linecap:round"
       id="path15930"
       inkscape:connector-curvature="0" />
    <path
       d="m 1597.3728,-2592.4076 a 4.005,4.005 0 1 0 -8.01,0 4.005,4.005 0 1 0 8.01,0 z"
       style="fill:none;stroke:#0000ff;stroke-linecap:round"
       id="path15932"
       inkscape:connector-curvature="0" />
    <path
       d="m 1544.0392,-2737.3873 a 5.625,5.625 0 1 0 -11.25,0 5.625,5.625 0 1 0 11.25,0 z"
       style="fill:none;stroke:#0000ff;stroke-linecap:round"
       id="path15934"
       inkscape:connector-curvature="0" />
    <path
       d="m 993.96627,-2699.4491 a 28.121535,28.121535 0 1 0 -56.24307,0 28.121535,28.121535 0 1 0 56.24307,0 z"
       style="fill:none;stroke:#0000ff;stroke-linecap:round"
       id="path15936"
       inkscape:connector-curvature="0" />
    <path
       d="m 1101.9212,-2699.4491 a 28.121534,28.121534 0 1 0 -56.243,0 28.121534,28.121534 0 1 0 56.243,0 z"
       style="fill:none;stroke:#0000ff;stroke-linecap:round"
       id="path15938"
       inkscape:connector-curvature="0" />
    <path
       d="m 1365.0921,-2600.9482 a 28.12155,28.12155 0 1 0 -56.2431,0 28.12155,28.12155 0 1 0 56.2431,0 z"
       style="fill:none;stroke:#0000ff;stroke-linecap:round"
       id="path15940"
       inkscape:connector-curvature="0" />
    <path
       d="m 1421.505,-2862.6378 a 4.005,4.005 0 1 0 -8.01,0 4.005,4.005 0 1 0 8.01,0 z"
       style="fill:none;stroke:#0000ff;stroke-linecap:round"
       id="path15942"
       inkscape:connector-curvature="0" />
    <path
       d="m 1691.505,-2862.6378 a 4.005,4.005 0 1 0 -8.01,0 4.005,4.005 0 1 0 8.01,0 z"
       style="fill:none;stroke:#0000ff;stroke-linecap:round"
       id="path15944"
       inkscape:connector-curvature="0" />
    <path
       d="m 223.5191,-2783.8878 a 4.005,4.005 0 1 0 -8.01,0 4.005,4.005 0 1 0 8.01,0 z"
       style="fill:none;stroke:#0000ff;stroke-linecap:round"
       id="path15946"
       inkscape:connector-curvature="0" />
    <path
       d="m 409.005,-2862.6378 a 4.005,4.005 0 1 0 -8.01,0 4.005,4.005 0 1 0 8.01,0 z"
       style="fill:none;stroke:#0000ff;stroke-linecap:round"
       id="path15948"
       inkscape:connector-curvature="0" />
    <path
       d="m 139.005,-2862.6378 a 4.005,4.005 0 1 0 -8.01,0 4.005,4.005 0 1 0 8.01,0 z"
       style="fill:none;stroke:#0000ff;stroke-linecap:round"
       id="path15950"
       inkscape:connector-curvature="0" />
    <path
       d="m 1101.9247,-2789.4491 -380.1149,0"
       style="fill:none;stroke:#0000ff;stroke-linecap:round"
       id="path15952"
       inkscape:connector-curvature="0" />
    <path
       d="m 778.05633,-2699.4491 a 28.121534,28.121534 0 1 0 -56.24306,0 28.121534,28.121534 0 1 0 56.24306,0 z"
       style="fill:none;stroke:#0000ff;stroke-linecap:round"
       id="path15954"
       inkscape:connector-curvature="0" />
    <path
       d="m 26.505,-2457.6378 a 4.005,4.005 0 1 0 -8.01,0 4.005,4.005 0 1 0 8.01,0 z"
       style="fill:none;stroke:#0000ff;stroke-linecap:round"
       id="path15956"
       inkscape:connector-curvature="0" />
    <path
       d="m 26.505,-2187.6378 a 4.005,4.005 0 1 0 -8.01,0 4.005,4.005 0 1 0 8.01,0 z"
       style="fill:none;stroke:#0000ff;stroke-linecap:round"
       id="path15958"
       inkscape:connector-curvature="0" />
    <path
       d="m 26.505,-1827.6378 a 4.005,4.005 0 1 0 -8.01,0 4.005,4.005 0 1 0 8.01,0 z"
       style="fill:none;stroke:#0000ff;stroke-linecap:round"
       id="path15960"
       inkscape:connector-curvature="0" />
    <path
       d="m 26.505,-2817.6378 a 4.005,4.005 0 1 0 -8.01,0 4.005,4.005 0 1 0 8.01,0 z"
       style="fill:none;stroke:#0000ff;stroke-linecap:round"
       id="path15962"
       inkscape:connector-curvature="0" />
    <path
       d="m 107.48143,-2373.9643 a 5.6250005,5.6250005 0 1 0 -11.250001,0 5.6250005,5.6250005 0 1 0 11.250001,0 z"
       style="fill:none;stroke:#0000ff;stroke-linecap:round"
       id="path15964"
       inkscape:connector-curvature="0" />
    <path
       d="m 149.4561,-2373.9643 a 5.175,5.175 0 1 0 -10.35,0 5.175,5.175 0 1 0 10.35,0 z"
       style="fill:none;stroke:#0000ff;stroke-linecap:round"
       id="path15966"
       inkscape:connector-curvature="0" />
    <path
       d="m 323.66852,-1938.3413 a 22.5,22.5 0 1 0 -45,0 22.5,22.5 0 1 0 45,0 z"
       style="fill:none;stroke:#0000ff;stroke-linecap:round"
       id="path15968"
       inkscape:connector-curvature="0" />
    <path
       d="m 260.09,-1830.6462 a 4.005,4.005 0 1 0 -8.01,0 4.005,4.005 0 1 0 8.01,0 z"
       style="fill:none;stroke:#0000ff;stroke-linecap:round"
       id="path15970"
       inkscape:connector-curvature="0" />
    <path
       d="m 1604.9062,-1790.076 217.5938,35.6254"
       style="fill:none;stroke:#0000ff;stroke-linecap:round"
       id="path15972"
       inkscape:connector-curvature="0" />
    <path
       d="m 1243.9688,-1661.5128 a 22.5,22.5 0 1 0 -45,0 22.5,22.5 0 1 0 45,0 z"
       style="fill:none;stroke:#0000ff;stroke-linecap:round"
       id="path15974"
       inkscape:connector-curvature="0" />
    <path
       d="m 1505.4851,-2636.3053 a 22.500012,22.500012 0 0 0 -28.7946,34.5814"
       style="fill:none;stroke:#0000ff;stroke-linecap:round"
       id="path15976"
       inkscape:connector-curvature="0" />
    <path
       d="m 1519.9172,-2565.7307 -43.2267,-35.9932"
       style="fill:none;stroke:#0000ff;stroke-linecap:round"
       id="path15978"
       inkscape:connector-curvature="0" />
    <path
       d="m 1505.4851,-2636.3053 43.2267,35.9932"
       style="fill:none;stroke:#0000ff;stroke-linecap:round"
       id="path15980"
       inkscape:connector-curvature="0" />
    <path
       d="m 1519.9172,-2565.7307 a 22.500012,22.500012 0 1 0 28.7946,-34.5814"
       style="fill:none;stroke:#0000ff;stroke-linecap:round"
       id="path15982"
       inkscape:connector-curvature="0" />
    <path
       d="m 377.53238,-2686.6958 a 22.500003,22.500003 0 0 0 28.79457,34.5814"
       style="fill:none;stroke:#0000ff;stroke-linecap:round"
       id="path15984"
       inkscape:connector-curvature="0" />
    <path
       d="m 336.88138,-2678.7913 a 4.005,4.005 0 1 0 -8.01,0 4.005,4.005 0 1 0 8.01,0 z"
       style="fill:none;stroke:#0000ff;stroke-linecap:round"
       id="path15986"
       inkscape:connector-curvature="0" />
    <path
       d="m 233.13718,-2592.4076 a 4.005,4.005 0 1 0 -8.01,0 4.005,4.005 0 1 0 8.01,0 z"
       style="fill:none;stroke:#0000ff;stroke-linecap:round"
       id="path15988"
       inkscape:connector-curvature="0" />
    <path
       d="m 289.7108,-2737.3873 a 5.625,5.625 0 1 0 -11.25,0 5.625,5.625 0 1 0 11.25,0 z"
       style="fill:none;stroke:#0000ff;stroke-linecap:round"
       id="path15990"
       inkscape:connector-curvature="0" />
    <path
       d="m 1287.3968,-1714.4524 a 4.005,4.005 0 1 0 -8.01,0 4.005,4.005 0 1 0 8.01,0 z"
       style="fill:none;stroke:#0000ff;stroke-linecap:round"
       id="path15992"
       inkscape:connector-curvature="0" />
    <path
       d="m 541.48439,-1709.336 a 4.005,4.005 0 1 0 -8.01,0 4.005,4.005 0 1 0 8.01,0 z"
       style="fill:none;stroke:#0000ff;stroke-linecap:round"
       id="path15994"
       inkscape:connector-curvature="0" />
    <path
       d="m 621.86041,-1661.6378 a 22.5,22.5 0 1 0 -45,0 22.5,22.5 0 1 0 45,0 z"
       style="fill:none;stroke:#0000ff;stroke-linecap:round"
       id="path15996"
       inkscape:connector-curvature="0" />
    <path
       d="m 1468.8363,-2514.5645 a 28.12155,28.12155 0 1 0 -56.2431,0 28.12155,28.12155 0 1 0 56.2431,0 z"
       style="fill:none;stroke:#0000ff;stroke-linecap:round"
       id="path15998"
       inkscape:connector-curvature="0" />
    <path
       d="m 1554.3747,-2044.5342 a 4.005,4.005 0 1 0 -8.01,0 4.005,4.005 0 1 0 8.01,0 z"
       style="fill:none;stroke:#0000ff;stroke-linecap:round"
       id="path16000"
       inkscape:connector-curvature="0" />
    <path
       d="m 409.90679,-2514.5645 a 28.121535,28.121535 0 1 0 -56.24307,0 28.121535,28.121535 0 1 0 56.24307,0 z"
       style="fill:none;stroke:#0000ff;stroke-linecap:round"
       id="path16002"
       inkscape:connector-curvature="0" />
    <path
       d="m 173.0484,-2763.5294 a 53.437502,53.437502 0 1 0 -106.875003,0 53.437502,53.437502 0 1 0 106.875003,0 z"
       style="fill:none;stroke:#0000ff;stroke-linecap:round"
       id="path16004"
       inkscape:connector-curvature="0" />
    <path
       d="m 481.27658,-2773.0795 43.22675,-35.9932"
       style="fill:none;stroke:#0000ff;stroke-linecap:round"
       id="path16006"
       inkscape:connector-curvature="0" />
    <path
       d="m 553.29789,-2774.4913 a 22.5,22.5 0 0 0 -28.79456,-34.5814"
       style="fill:none;stroke:#0000ff;stroke-linecap:round"
       id="path16008"
       inkscape:connector-curvature="0" />
    <path
       d="m 1297.9967,-2809.0727 a 22.500012,22.500012 0 0 0 -28.7946,34.5814"
       style="fill:none;stroke:#0000ff;stroke-linecap:round"
       id="path16010"
       inkscape:connector-curvature="0" />
    <path
       d="m 1312.4289,-2738.4981 -43.2268,-35.9932"
       style="fill:none;stroke:#0000ff;stroke-linecap:round"
       id="path16012"
       inkscape:connector-curvature="0" />
    <path
       d="m 1297.9967,-2809.0727 43.2267,35.9932"
       style="fill:none;stroke:#0000ff;stroke-linecap:round"
       id="path16014"
       inkscape:connector-curvature="0" />
    <path
       d="m 1312.4289,-2738.4981 a 22.5,22.5 0 0 0 28.7945,-34.5814"
       style="fill:none;stroke:#0000ff;stroke-linecap:round"
       id="path16016"
       inkscape:connector-curvature="0" />
    <path
       d="m 671.76,-2851.5586 a 4.005,4.005 0 1 0 -8.01,0 4.005,4.005 0 1 0 8.01,0 z"
       style="fill:none;stroke:#0000ff;stroke-linecap:round"
       id="path16018"
       inkscape:connector-curvature="0" />
    <path
       d="m 1389.8844,-2765.175 a 4.005,4.005 0 1 0 -8.01,0 4.005,4.005 0 1 0 8.01,0 z"
       style="fill:none;stroke:#0000ff;stroke-linecap:round"
       id="path16020"
       inkscape:connector-curvature="0" />
    <path
       d="m 1756.3266,-2763.5294 a 53.4375,53.4375 0 1 0 -106.875,0 53.4375,53.4375 0 1 0 106.875,0 z"
       style="fill:none;stroke:#0000ff;stroke-linecap:round"
       id="path16022"
       inkscape:connector-curvature="0" />
    <path
       d="m 1286.1402,-2851.5586 a 4.005,4.005 0 1 0 -8.01,0 4.005,4.005 0 1 0 8.01,0 z"
       style="fill:none;stroke:#0000ff;stroke-linecap:round"
       id="path16024"
       inkscape:connector-curvature="0" />
    <path
       d="m 1804.005,-2817.6378 a 4.005,4.005 0 1 0 -8.01,0 4.005,4.005 0 1 0 8.01,0 z"
       style="fill:none;stroke:#0000ff;stroke-linecap:round"
       id="path16026"
       inkscape:connector-curvature="0" />
    <path
       d="m 1606.9909,-2783.8878 a 4.005,4.005 0 1 0 -8.01,0 4.005,4.005 0 1 0 8.01,0 z"
       style="fill:none;stroke:#0000ff;stroke-linecap:round"
       id="path16028"
       inkscape:connector-curvature="0" />
    <path
       d="m 1804.005,-2457.6378 a 4.005,4.005 0 1 0 -8.01,0 4.005,4.005 0 1 0 8.01,0 z"
       style="fill:none;stroke:#0000ff;stroke-linecap:round"
       id="path16030"
       inkscape:connector-curvature="0" />
    <path
       d="m 1726.5088,-2374.4069 a 5.625,5.625 0 1 0 -11.25,0 5.625,5.625 0 1 0 11.25,0 z"
       style="fill:none;stroke:#0000ff;stroke-linecap:round"
       id="path16032"
       inkscape:connector-curvature="0" />
    <path
       d="m 1683.3967,-2373.938 a 5.175,5.175 0 1 0 -10.35,0 5.175,5.175 0 1 0 10.35,0 z"
       style="fill:none;stroke:#0000ff;stroke-linecap:round"
       id="path16034"
       inkscape:connector-curvature="0" />
    <path
       d="m 0,-1755.4193 215.56285,-33.7188"
       style="fill:none;stroke:#0000ff;stroke-linecap:round"
       id="path16036"
       inkscape:connector-curvature="0" />
    <path
       d="m 0,-2885.1378 1822.5,0"
       style="fill:none;stroke:#0000ff;stroke-linecap:round"
       id="path16038"
       inkscape:connector-curvature="0" />
    <path
       d="m 0,-2885.1378 0,1129.7185"
       style="fill:none;stroke:#0000ff;stroke-linecap:round"
       id="path16040"
       inkscape:connector-curvature="0" />
    <path
       d="m 1511.7188,-2788.1065 a 22.5,22.5 0 1 0 -45,0 22.5,22.5 0 1 0 45,0 z"
       style="fill:none;stroke:#0000ff;stroke-linecap:round"
       id="path16042"
       inkscape:connector-curvature="0" />
    <path
       d="m 355.78125,-2788.1065 a 22.5,22.5 0 1 0 -45,0 22.5,22.5 0 1 0 45,0 z"
       style="fill:none;stroke:#0000ff;stroke-linecap:round"
       id="path16044"
       inkscape:connector-curvature="0" />
    <path
       d="m 721.8098,-2834.4491 380.1149,0"
       style="fill:none;stroke:#0000ff;stroke-linecap:round"
       id="path16046"
       inkscape:connector-curvature="0" />
    <path
       d="m 721.8098,-2834.4491 a 22.5,22.5 0 0 0 0,45"
       style="fill:none;stroke:#0000ff;stroke-linecap:round"
       id="path16048"
       inkscape:connector-curvature="0" />
    <path
       d="m 1101.9247,-2789.4491 a 22.5,22.5 0 0 0 0,-45"
       style="fill:none;stroke:#0000ff;stroke-linecap:round"
       id="path16050"
       inkscape:connector-curvature="0" />
    <path
       d="m 440.62557,-2765.175 a 4.005,4.005 0 1 0 -8.01,0 4.005,4.005 0 1 0 8.01,0 z"
       style="fill:none;stroke:#0000ff;stroke-linecap:round"
       id="path16052"
       inkscape:connector-curvature="0" />
    <path
       d="m 544.36977,-2851.5586 a 4.005,4.005 0 1 0 -8.01,0 4.005,4.005 0 1 0 8.01,0 z"
       style="fill:none;stroke:#0000ff;stroke-linecap:round"
       id="path16054"
       inkscape:connector-curvature="0" />
    <path
       d="m 1158.75,-2851.5586 a 4.005,4.005 0 1 0 -8.01,0 4.005,4.005 0 1 0 8.01,0 z"
       style="fill:none;stroke:#0000ff;stroke-linecap:round"
       id="path16056"
       inkscape:connector-curvature="0" />
    <path
       d="m 1822.5,-2885.1378 0,1130.6872"
       style="fill:none;stroke:#0000ff;stroke-linecap:round"
       id="path16058"
       inkscape:connector-curvature="0" />
    <path
       d="m 617.39518,-2687.3319 a 28.121535,28.121535 0 1 0 -56.24307,0 28.121535,28.121535 0 1 0 56.24307,0 z"
       style="fill:none;stroke:#0000ff;stroke-linecap:round"
       id="path16060"
       inkscape:connector-curvature="0" />
    <path
       d="m 513.65098,-2600.9482 a 28.121535,28.121535 0 1 0 -56.24307,0 28.121535,28.121535 0 1 0 56.24307,0 z"
       style="fill:none;stroke:#0000ff;stroke-linecap:round"
       id="path16062"
       inkscape:connector-curvature="0" />
    <path
       d="m 223.5191,-2693.8878 a 4.005,4.005 0 1 0 -8.01,0 4.005,4.005 0 1 0 8.01,0 z"
       style="fill:none;stroke:#0000ff;stroke-linecap:round"
       id="path16064"
       inkscape:connector-curvature="0" />
  </g>
  <g
     inkscape:groupmode="layer"
     inkscape:label="CONSTRUCTION"
     id="g16066"
     transform="translate(90.507121,2975.6449)" />
</svg>
